name baseline.mot
datacolumns 19
datarows 26
range 7.82330000000000 7.86497000000000
endheader
time	ground_force1_vx	ground_force1_vy	ground_force1_vz	ground_force1_px	ground_force1_py	ground_force1_pz	ground_force2_vx	ground_force2_vy	ground_force2_vz	ground_force2_px	ground_force2_py	ground_force2_pz	ground_torque1_x	ground_torque1_y	ground_torque1_z	ground_torque2_x	ground_torque2_y	ground_torque2_z	
7.82330000000000	-51.24767400000000	781.03304400000002	64.19291300000000	-0.02187600000000	0.00000000000000	0.14633600000000	-6.89308100000000	39.44354100000000	10.46966400000000	0.24576000000000	0.00000000000000	-0.07709200000000	0.00000000000000	12.29802200000000	0.00000000000000	0.00000000000000	4.75332600000000	0.00000000000000	
7.82496700000000	-51.69403000000000	779.34856000000002	63.98814200000000	-0.02269700000000	0.00000000000000	0.14625200000000	-7.57159300000000	45.88758700000000	11.81844800000000	0.24872000000000	0.00000000000000	-0.07797500000000	0.00000000000000	12.32407000000000	0.00000000000000	0.00000000000000	5.42935800000000	0.00000000000000	
7.82663400000000	-52.14549300000000	777.58196599999997	63.76868700000000	-0.02351400000000	0.00000000000000	0.14616500000000	-8.12345500000000	52.32136300000000	13.06086900000000	0.25144100000000	0.00000000000000	-0.07879500000000	0.00000000000000	12.35310900000000	0.00000000000000	0.00000000000000	6.07106700000000	0.00000000000000	
7.82830000000000	-52.60231600000000	775.73239999999998	63.53432300000000	-0.02432700000000	0.00000000000000	0.14607400000000	-8.53014300000000	58.65426700000000	14.16950800000000	0.25395200000000	0.00000000000000	-0.07956100000000	0.00000000000000	12.38527100000000	0.00000000000000	0.00000000000000	6.66518100000000	0.00000000000000	
7.82996900000000	-53.06473000000000	773.79901099999995	63.28483500000000	-0.02513600000000	0.00000000000000	0.14598200000000	-8.78070000000000	64.81984500000000	15.12593600000000	0.25628000000000	0.00000000000000	-0.08028100000000	0.00000000000000	12.42068500000000	0.00000000000000	0.00000000000000	7.20226800000000	0.00000000000000	
7.83163600000000	-53.53294400000000	771.78096000000005	63.02002500000000	-0.02594200000000	0.00000000000000	0.14588600000000	-8.87161400000000	70.77753900000000	15.92087300000000	0.25844400000000	0.00000000000000	-0.08096100000000	0.00000000000000	12.45946700000000	0.00000000000000	0.00000000000000	7.67692200000000	0.00000000000000	
7.83329900000000	-54.00714200000000	769.67741899999999	62.73970900000000	-0.02674400000000	0.00000000000000	0.14578800000000	-8.80612000000000	76.51200900000001	16.55358300000000	0.26046100000000	0.00000000000000	-0.08160400000000	0.00000000000000	12.50172600000000	0.00000000000000	0.00000000000000	8.08757900000000	0.00000000000000	
7.83497200000000	-54.48748400000000	767.48756400000002	62.44371600000000	-0.02754100000000	0.00000000000000	0.14568600000000	-8.59305900000000	82.03050100000000	17.03065700000000	0.26234600000000	0.00000000000000	-0.08221700000000	0.00000000000000	12.54756300000000	0.00000000000000	0.00000000000000	8.43605400000000	0.00000000000000	
7.83663500000000	-54.97410000000000	765.21057800000005	62.13189500000000	-0.02833600000000	0.00000000000000	0.14558200000000	-8.24548000000000	87.35880299999999	17.36441600000000	0.26411000000000	0.00000000000000	-0.08280200000000	0.00000000000000	12.59706500000000	0.00000000000000	0.00000000000000	8.72687800000000	0.00000000000000	
7.83830100000000	-55.46709100000000	762.84564699999999	61.80410800000000	-0.02912600000000	0.00000000000000	0.14547500000000	-7.77912900000000	92.53638400000000	17.57111500000000	0.26576400000000	0.00000000000000	-0.08336200000000	0.00000000000000	12.65031100000000	0.00000000000000	0.00000000000000	8.96651700000000	0.00000000000000	
7.83996800000000	-55.96652600000000	760.39195900000004	61.46023700000000	-0.02991300000000	0.00000000000000	0.14536400000000	-7.21098400000000	97.61124599999999	17.66914300000000	0.26731500000000	0.00000000000000	-0.08390000000000	0.00000000000000	12.70736900000000	0.00000000000000	0.00000000000000	9.16257900000000	0.00000000000000	
7.84163200000000	-56.47244100000000	757.84870000000001	61.10017900000000	-0.03069700000000	0.00000000000000	0.14525100000000	-6.55794100000000	102.63497400000000	17.67735100000000	0.26877200000000	0.00000000000000	-0.08441900000000	0.00000000000000	12.76829400000000	0.00000000000000	0.00000000000000	9.32305000000000	0.00000000000000	
7.84330700000000	-56.98483400000000	755.21505500000001	60.72385400000000	-0.03147800000000	0.00000000000000	0.14513500000000	-5.83572100000000	107.65832800000000	17.61363800000000	0.27014000000000	0.00000000000000	-0.08492100000000	0.00000000000000	12.83312800000000	0.00000000000000	0.00000000000000	9.45563800000000	0.00000000000000	
7.84496900000000	-57.50366800000000	752.49020499999995	60.33119800000000	-0.03225600000000	0.00000000000000	0.14501600000000	-5.05806600000000	112.72764300000000	17.49384700000000	0.27142500000000	0.00000000000000	-0.08540700000000	0.00000000000000	12.90190300000000	0.00000000000000	0.00000000000000	9.56724800000000	0.00000000000000	
7.84664100000000	-58.02886300000000	749.67332499999998	59.92216700000000	-0.03303100000000	0.00000000000000	0.14489400000000	-4.23621200000000	117.88217000000000	17.33101100000000	0.27263100000000	0.00000000000000	-0.08587900000000	0.00000000000000	12.97463500000000	0.00000000000000	0.00000000000000	9.66360900000000	0.00000000000000	
7.84830400000000	-58.56030200000000	746.76358400000004	59.49673900000000	-0.03380300000000	0.00000000000000	0.14476900000000	-3.37865200000000	123.15239000000000	17.13493900000000	0.27376200000000	0.00000000000000	-0.08633800000000	0.00000000000000	13.05132700000000	0.00000000000000	0.00000000000000	9.74905600000000	0.00000000000000	
7.84996700000000	-59.09782000000000	743.76014199999997	59.05491100000000	-0.03457300000000	0.00000000000000	0.14464100000000	-2.49113600000000	128.55926199999999	16.91211900000000	0.27482100000000	0.00000000000000	-0.08678600000000	0.00000000000000	13.13196900000000	0.00000000000000	0.00000000000000	9.82645300000000	0.00000000000000	
7.85163800000000	-59.64120900000000	740.66215099999999	58.59670100000000	-0.03534200000000	0.00000000000000	0.14451000000000	-1.57688200000000	134.11429200000001	16.66588400000000	0.27581100000000	0.00000000000000	-0.08722300000000	0.00000000000000	13.21653500000000	0.00000000000000	0.00000000000000	9.89724600000000	0.00000000000000	
7.85330600000000	-60.19021300000000	737.46875299999999	58.12215100000000	-0.03610900000000	0.00000000000000	0.14437700000000	-0.63693200000000	139.82025500000000	16.39678000000000	0.27673600000000	0.00000000000000	-0.08765000000000	0.00000000000000	13.30498600000000	0.00000000000000	0.00000000000000	9.96161000000000	0.00000000000000	
7.85497300000000	-60.74453000000000	734.17908199999999	57.63132200000000	-0.03687400000000	0.00000000000000	0.14424000000000	0.32939300000000	145.67242200000001	16.10308000000000	0.27759600000000	0.00000000000000	-0.08806900000000	0.00000000000000	13.39726700000000	0.00000000000000	0.00000000000000	10.01866500000000	0.00000000000000	
7.85663300000000	-61.30380500000000	730.79226100000005	57.12429800000000	-0.03763900000000	0.00000000000000	0.14410100000000	1.32400000000000	151.66007600000000	15.78136400000000	0.27839500000000	0.00000000000000	-0.08848000000000	0.00000000000000	13.49330600000000	0.00000000000000	0.00000000000000	10.06673500000000	0.00000000000000	
7.85830500000000	-61.86763200000000	727.30740200000002	56.60118700000000	-0.03840300000000	0.00000000000000	0.14395900000000	2.34952500000000	157.76818100000000	15.42712600000000	0.27913200000000	0.00000000000000	-0.08888300000000	0.00000000000000	13.59301800000000	0.00000000000000	0.00000000000000	10.10361900000000	0.00000000000000	
7.85997300000000	-62.43555300000000	723.72361100000001	56.06211700000000	-0.03916700000000	0.00000000000000	0.14381500000000	3.40887500000000	163.97902500000001	15.03534500000000	0.27981100000000	0.00000000000000	-0.08927900000000	0.00000000000000	13.69630100000000	0.00000000000000	0.00000000000000	10.12685200000000	0.00000000000000	
7.86163500000000	-63.00705400000000	720.03998500000000	55.50724000000000	-0.03993100000000	0.00000000000000	0.14366700000000	4.50483500000000	170.27374699999999	14.60099500000000	0.28043200000000	0.00000000000000	-0.08967000000000	0.00000000000000	13.80303600000000	0.00000000000000	0.00000000000000	10.13394100000000	0.00000000000000	
7.86330000000000	-63.58156900000000	716.25561300000004	54.93673200000000	-0.04069600000000	0.00000000000000	0.14351800000000	5.63975800000000	176.63363500000000	14.11945900000000	0.28099700000000	0.00000000000000	-0.09005400000000	0.00000000000000	13.91309000000000	0.00000000000000	0.00000000000000	10.12256400000000	0.00000000000000	
7.86497000000000	-64.15847200000000	712.36958000000004	54.35078800000000	-0.04146200000000	0.00000000000000	0.14336600000000	6.81533500000000	183.04116700000000	13.58684700000000	0.28150600000000	0.00000000000000	-0.09043200000000	0.00000000000000	14.02631200000000	0.00000000000000	0.00000000000000	10.09071300000000	0.00000000000000	
